<svg width="19" height="18" viewBox="0 0 19 18" fill="none" xmlns="http://www.w3.org/2000/svg">
<path d="M9.58207 17.4114C9.28207 17.4114 8.98207 17.3114 8.78207 17.0114C3.38207 10.9114 2.08207 9.51144 1.78207 9.11144C1.08207 8.21144 0.682068 7.01144 0.682068 5.81144C0.682068 2.81144 3.08207 0.411438 6.18207 0.411438C7.48207 0.411438 8.68207 0.911438 9.68207 1.71144C10.6821 0.911438 11.9821 0.411438 13.1821 0.411438C16.1821 0.411438 18.6821 2.81144 18.6821 5.81144C18.6821 7.11144 18.1821 8.31144 17.3821 9.21144L10.3821 17.1114C10.1821 17.3114 9.98207 17.4114 9.58207 17.4114ZM3.58207 7.91144C3.88207 8.31144 7.08207 11.9114 9.68207 14.8114L15.8821 7.81144C16.3821 7.31144 16.5821 6.61144 16.5821 5.81144C16.5821 4.01144 15.0821 2.51144 13.2821 2.51144C12.2821 2.51144 11.2821 3.01144 10.5821 3.81144C10.2821 4.11144 9.98207 4.21144 9.68207 4.21144C9.38207 4.21144 9.08207 4.01144 8.88207 3.81144C8.18207 3.01144 7.18207 2.51144 6.18207 2.51144C4.38207 2.51144 2.88207 4.01144 2.88207 5.81144C2.78207 6.71144 3.18207 7.41144 3.58207 7.91144C3.48207 7.91144 3.48207 7.91144 3.58207 7.91144Z" fill="#756257"/>
</svg>
